<?xml version="1.0" encoding="UTF-8"?>
<svg version="1.1" xmlns="http://www.w3.org/2000/svg" width="1000" height="2500">
<path d="M0 0 C264 0 528 0 800 0 C800 660 800 1320 800 2000 C536 2000 272 2000 0 2000 C0 1340 0 680 0 0 Z " fill="#F5F7F9" transform="translate(0,0)"/>
<path d="M0 0 C0.33 0 0.66 0 1 0 C1 391.38 1 782.76 1 1186 C-9.96075301 1184.78213855 -20.90523824 1183.54598813 -31.84375 1182.16015625 C-33.19061416 1181.99068875 -34.53749785 1181.82137641 -35.88439941 1181.65220642 C-40.78847861 1181.03592919 -45.6922156 1180.41694803 -50.59594727 1179.7979126 C-55.42836071 1179.18799771 -60.26096437 1178.57961483 -65.09375 1177.97265625 C-65.76716368 1177.88795137 -66.44057735 1177.8032465 -67.13439751 1177.71597481 C-77.62220047 1176.39843471 -88.11703352 1175.15261634 -98.62402344 1173.99720764 C-104.44145223 1173.34591559 -110.18602985 1172.52740075 -115.9375 1171.4375 C-121.41119484 1170.41011803 -126.82988933 1169.64877942 -132.375 1169.125 C-159.44691698 1166.53092055 -186.43668391 1161.8462835 -213.26953125 1157.50244141 C-214.29433594 1157.33663574 -215.31914063 1157.17083008 -216.375 1157 C-217.39980469 1156.83419434 -218.42460938 1156.66838867 -219.48046875 1156.49755859 C-228.28703049 1155.08614491 -237.11298475 1153.83560021 -245.94520569 1152.59681702 C-254.39091264 1151.40000399 -262.81237352 1150.0874633 -271.23046875 1148.7109375 C-273.96726349 1148.26619312 -276.70430043 1147.82295254 -279.44140625 1147.38012695 C-280.14280826 1147.2666199 -280.84421026 1147.15311285 -281.56686687 1147.03616619 C-295.26495754 1144.82299907 -308.97597736 1142.69059535 -322.6875 1140.5625 C-323.45799053 1140.44290421 -324.22848106 1140.32330841 -325.02231979 1140.2000885 C-350.97816521 1136.1739109 -376.94853687 1132.36033617 -403 1129 C-404.51938171 1128.80401215 -404.51938171 1128.80401215 -406.06945801 1128.60406494 C-410.49116102 1128.03411063 -414.9129624 1127.46492139 -419.33476257 1126.89572144 C-422.78569349 1126.45145737 -426.23659738 1126.0069838 -429.6875 1125.5625 C-430.83654816 1125.41466064 -431.98559631 1125.26682129 -433.16946411 1125.11450195 C-451.73755315 1122.7223371 -470.27487275 1120.15728695 -488.80335999 1117.4772644 C-489.82989182 1117.32879059 -490.85642365 1117.18031677 -491.9140625 1117.02734375 C-492.96963852 1116.87459991 -494.02521454 1116.72185608 -495.11277771 1116.56448364 C-505.22560821 1115.10464892 -515.34295841 1113.67751489 -525.4609375 1112.25390625 C-526.31756233 1112.13334492 -527.17418716 1112.01278358 -528.05677032 1111.88856888 C-535.84790785 1110.79212479 -543.63916174 1109.69651006 -551.43066406 1108.60266113 C-567.53350296 1106.34166206 -583.6360139 1104.07760495 -599.7265625 1101.73046875 C-600.85315277 1101.56847488 -601.97974304 1101.40648102 -603.14047241 1101.23957825 C-604.66542831 1101.01500191 -604.66542831 1101.01500191 -606.22119141 1100.78588867 C-607.10239655 1100.65736008 -607.98360168 1100.52883148 -608.89151001 1100.39640808 C-611 1100 -611 1100 -613 1099 C-613.29764811 1044.96861444 -613.52667239 990.93731183 -613.66384928 936.90526747 C-613.68010819 930.52424598 -613.69693441 924.14322611 -613.71411133 917.76220703 C-613.71752136 916.49187748 -613.7209314 915.22154794 -613.72444477 913.91272356 C-613.78099007 893.35190955 -613.883477 872.79156875 -614.00298635 852.23103534 C-614.12461807 831.12914569 -614.19677706 810.02750363 -614.22315043 788.92527783 C-614.2409757 775.90699301 -614.29724218 762.89004574 -614.40291407 749.87217273 C-614.47170894 740.94152978 -614.49238441 732.01157682 -614.47551791 723.08068822 C-614.46720211 717.92980913 -614.47981341 712.78126449 -614.54967117 707.63080215 C-614.61326123 702.90778958 -614.61593814 698.18866455 -614.57168563 693.46546735 C-614.56622303 691.7639394 -614.58245767 690.06216208 -614.62348137 688.36111997 C-614.8197135 679.71645613 -614.30597167 673.6722547 -608.42333491 666.9948659 C-606.19341322 664.691825 -603.88709519 662.5038538 -601.49684366 660.36834539 C-599.58894194 658.62422969 -597.9117744 656.72739009 -596.25 654.75 C-593.70288562 651.79938235 -591.11247763 648.89301214 -588.5 646 C-583.68985199 640.66437363 -578.94019763 635.28413119 -574.28515625 629.8125 C-568.46240407 622.97419582 -562.54327817 616.25762835 -556.44921875 609.66015625 C-550.84370153 603.57186721 -545.52056556 597.25256025 -540.19189453 590.92260742 C-537.31338006 587.51539626 -534.37898182 584.17307794 -531.375 580.875 C-528.36134097 577.56264202 -525.49289276 574.17787196 -522.6875 570.6875 C-518.79873611 565.87574852 -514.67385286 561.35564456 -510.44873047 556.84326172 C-506.48296144 552.58401314 -502.78936919 548.15126866 -499.14453125 543.61328125 C-497.00125044 541.00152377 -494.7761967 538.49634698 -492.5 536 C-489.38541332 532.58260628 -486.4081338 529.0947765 -483.5 525.5 C-480.5918662 521.9052235 -477.61458668 518.41739372 -474.5 515 C-470.65441259 510.77583145 -467.03269029 506.41046927 -463.4375 501.97265625 C-459.22877517 496.83990049 -454.88093473 491.82654106 -450.54833984 486.79833984 C-448.52621964 484.44972152 -446.50938426 482.09660349 -444.49316406 479.74291992 C-443.49684848 478.57995443 -442.5001028 477.41735726 -441.50292969 476.25512695 C-438.98379402 473.3187338 -436.46974298 470.37823812 -433.96484375 467.4296875 C-428.25562819 460.71977409 -422.43833392 454.14026863 -416.45703125 447.671875 C-413.82974755 444.81486061 -411.27110309 441.90700498 -408.7265625 438.9765625 C-402.9570732 432.37167204 -397.01805557 425.91709722 -391.0847168 419.4597168 C-388.22455432 416.34438736 -385.38515356 413.21182594 -382.5625 410.0625 C-377.61380335 404.5502507 -372.58472523 399.11379978 -367.55273438 393.67773438 C-365.0123352 390.93282508 -362.47467663 388.18538781 -359.9375 385.4375 C-359.44016357 384.89891357 -358.94282715 384.36032715 -358.43041992 383.80541992 C-355.11264521 380.21057774 -351.8037622 376.60772019 -348.5 373 C-338.99181903 362.62078867 -329.42358536 352.30117769 -319.7890625 342.0390625 C-315.60865476 337.58550918 -311.44204235 333.11916739 -307.27661133 328.65161133 C-304.24815757 325.40479842 -301.21544856 322.16210128 -298.17578125 318.92578125 C-296.88801796 317.55469019 -295.60025754 316.18359646 -294.3125 314.8125 C-293.37180664 313.81101929 -293.37180664 313.81101929 -292.41210938 312.78930664 C-288.57681221 308.69996631 -284.77517998 304.58234265 -281 300.4375 C-277.62295813 296.73574256 -274.18152831 293.14482468 -270.60546875 289.63671875 C-268.84372757 287.84068577 -267.20364054 285.96917339 -265.5625 284.0625 C-262.59394444 280.61578784 -259.45920896 277.40889141 -256.1875 274.25 C-254.28973453 272.29801266 -252.50268548 270.30483681 -250.71875 268.25 C-247.08287258 264.06487301 -243.31383813 260.02273083 -239.5 256 C-238.0948543 254.51320773 -236.68991152 253.02622366 -235.28515625 251.5390625 C-234.57633301 250.78915039 -233.86750977 250.03923828 -233.13720703 249.26660156 C-231.04259095 247.04516956 -228.95530327 244.81713287 -226.87109375 242.5859375 C-226.20980469 241.87824219 -225.54851562 241.17054688 -224.8671875 240.44140625 C-223.62282856 239.10888423 -222.37927751 237.77560708 -221.13671875 236.44140625 C-218.23169553 233.33355483 -215.29245462 230.27490714 -212.2734375 227.27734375 C-209.97103361 224.99065045 -207.77241495 222.67703456 -205.6875 220.1875 C-202.92381971 216.97666245 -200.01380404 213.97732835 -197 211 C-193.39280873 207.43640017 -190.00522111 203.78075144 -186.7109375 199.9296875 C-184.2530504 197.15754999 -181.60376396 194.59449311 -178.96484375 191.99609375 C-177.07769256 190.07892823 -175.31314625 188.10424678 -173.5625 186.0625 C-170.99334729 183.07198284 -168.30682744 180.26883316 -165.5 177.5 C-162.71378859 174.7514401 -160.04691608 171.97140209 -157.5 169 C-154.31995344 165.28994568 -150.91238198 161.87022133 -147.40625 158.46875 C-144.79182061 155.78641335 -142.3547561 152.98674787 -139.90039062 150.15869141 C-136.68466189 146.50588135 -133.341859 142.97462087 -130 139.4375 C-129.32710937 138.72142578 -128.65421875 138.00535156 -127.9609375 137.26757812 C-124.75655966 133.86833947 -121.52608838 130.50635875 -118.2109375 127.21484375 C-115.90898234 124.92886533 -113.7130916 122.61082334 -111.625 120.125 C-109.03365795 117.1153247 -106.32745217 114.28911384 -103.5 111.5 C-100.0711721 108.11758601 -96.87951482 104.61929558 -93.74609375 100.96484375 C-91.27518611 98.18438168 -88.6183306 95.60881782 -85.96875 93 C-84.06013545 91.06108998 -82.27289448 89.06300449 -80.5 87 C-78.10323412 84.21103607 -75.62040609 81.58009215 -73 79 C-70.40017817 76.44009866 -67.93731602 73.8322046 -65.5625 71.0625 C-62.35920142 67.33383127 -58.93339494 63.89060703 -55.40625 60.46875 C-52.77094487 57.76499539 -50.31239271 54.94293788 -47.83837891 52.09228516 C-44.94748208 48.8021144 -41.94441931 45.62136788 -38.9375 42.4375 C-37.61704346 41.03398966 -36.29673445 39.63034052 -34.9765625 38.2265625 C-33.98317871 37.17130371 -33.98317871 37.17130371 -32.96972656 36.09472656 C-27.62788614 30.41388982 -22.31259261 24.70817833 -17 19 C-16.44086914 18.39961914 -15.88173828 17.79923828 -15.30566406 17.18066406 C-13.68106729 15.43467302 -12.05886716 13.68649 -10.4375 11.9375 C-9.96094971 11.42550049 -9.48439941 10.91350098 -8.9934082 10.38598633 C-6.65655394 7.85955627 -4.39988751 5.29256512 -2.22265625 2.62890625 C-1.48917969 1.76136719 -0.75570312 0.89382813 0 0 Z " fill="#8961D3" transform="translate(799,338)"/>
<path d="M0 0 C2.87261261 -0.00884205 5.74473879 -0.02971817 8.6171875 -0.06152344 C22.80397332 -0.21495611 36.53663035 -0.22262445 50.48726463 2.71367359 C60.04035725 4.56492543 69.58860791 4.99684332 79.28686523 5.41455078 C80.21349806 5.45630708 81.14013089 5.49806337 82.09484351 5.541085 C104.55881217 6.53571905 127.01410503 6.55714123 149.49571204 6.49795389 C155.2103369 6.48515623 160.92496569 6.48425384 166.63960266 6.48190308 C177.38339536 6.47577122 188.12714568 6.45947717 198.87092 6.4392041 C211.13528122 6.41658116 223.39964484 6.40578644 235.66402185 6.39581323 C260.82087825 6.37509997 285.97769746 6.34009191 311.13452148 6.29516602 C310.35629937 9.96107677 309.26797116 11.46777288 306.50952148 14.04516602 C303.84646083 16.60942053 301.2925107 19.17729926 298.88452148 21.98266602 C294.29698383 27.30878682 289.49409489 32.43611272 284.71508789 37.58959961 C282.18398856 40.32087238 279.65949208 43.05822871 277.13452148 45.79516602 C276.13455531 46.87853057 275.13455526 47.96186386 274.13452148 49.04516602 C273.39202148 49.84954102 273.39202148 49.84954102 272.63452148 50.67016602 C267.13452148 56.62849935 261.63452148 62.58683268 256.13452148 68.54516602 C255.63984375 69.08109375 255.14516602 69.61702148 254.63549805 70.16918945 C253.63235092 71.25587778 252.62909517 72.34246584 251.62573242 73.42895508 C249.17299652 76.08515837 246.72197876 78.74289768 244.27514648 81.40454102 C238.49142927 87.6917449 232.67067904 93.94330427 226.82202148 100.17016602 C225.83540527 101.22252441 225.83540527 101.22252441 224.82885742 102.29614258 C221.18815324 106.16496567 217.49727158 109.96697705 213.70678711 113.68945312 C212.0391592 115.39255696 210.48922324 117.16574311 208.94702148 118.98266602 C205.39276088 123.11459425 201.56133404 126.92947617 197.66113281 130.73144531 C194.98891383 133.35732267 192.46245355 136.04531487 190.02989197 138.89561462 C185.80580566 143.74218859 181.29595607 148.27395377 176.74609375 152.81298828 C175.8313327 153.72950165 174.91657166 154.64601501 173.97409058 155.59030151 C171.48669843 158.08221516 168.99619862 160.57100018 166.50495267 163.05906034 C163.88468373 165.67677817 161.2668775 168.29695705 158.64866638 170.91673279 C154.25341277 175.31380012 149.85606784 179.70876771 145.45751953 184.10253906 C140.38931628 189.16530124 135.32472524 194.2316555 130.2619949 199.2998901 C125.89673508 203.66970384 121.52950963 208.03754592 117.16066784 212.40377849 C114.55941826 215.00347781 111.95882811 217.60382711 109.36001778 220.20596504 C106.46033098 223.10910592 103.55653309 226.00810158 100.65234375 228.90673828 C99.80378311 229.75732315 98.95522247 230.60790802 98.08094788 231.48426819 C93.80329443 235.7468481 89.46174825 239.86357095 84.86824703 243.78517818 C82.01868757 246.26700128 79.37793592 248.94730654 76.72827148 251.63891602 C76.15927124 252.21170288 75.590271 252.78448975 75.00402832 253.37463379 C73.21169167 255.17901852 71.42267832 256.98663961 69.63452148 258.79516602 C56.12066588 272.46296302 56.12066588 272.46296302 49.90991211 277.74243164 C46.65323464 280.59068092 43.66023615 283.70575209 40.63452148 286.79516602 C36.9596692 290.54738361 33.27965259 294.21873081 29.29077148 297.63891602 C24.31245812 301.93156449 19.74508766 306.61474278 15.13452148 311.29516602 C9.93255914 316.57594597 4.72347448 321.73125702 -0.90454102 326.55688477 C-4.55961768 329.79694277 -7.94439214 333.31176477 -11.36547852 336.79516602 C-16.04875075 341.56374376 -20.78514203 346.14492568 -25.85180664 350.50415039 C-29.52037406 353.76707602 -32.92660451 357.29365314 -36.36547852 360.79516602 C-41.06884649 365.58420554 -45.82565574 370.18850925 -50.91430664 374.56665039 C-54.21600536 377.49157868 -57.27855661 380.64702123 -60.36547852 383.79516602 C-64.66500387 388.14096807 -68.96878931 392.35584879 -73.64672852 396.29516602 C-77.71652375 399.96371383 -81.5095268 403.92107649 -85.36401367 407.81323242 C-89.13391922 411.60583115 -92.95712636 415.24266095 -97.04516602 418.69360352 C-100.06241571 421.34826527 -102.82944213 424.25179922 -105.65063477 427.11157227 C-107.64207312 429.07491273 -109.6785043 430.91596271 -111.80297852 432.73266602 C-115.89466393 436.23866286 -119.63514734 440.04978492 -123.42016602 443.88110352 C-126.1567133 446.58267895 -129.01527218 449.08595337 -131.93579102 451.58422852 C-134.70518013 454.03967879 -137.26582975 456.6861294 -139.86157227 459.32250977 C-142.44794003 461.86854431 -145.18083132 464.21538158 -147.93188477 466.58032227 C-149.82042449 468.25520901 -151.59703499 469.99464188 -153.36547852 471.79516602 C-155.73590209 474.20849318 -158.17284159 476.46788455 -160.74047852 478.67016602 C-163.75015381 481.26150807 -166.57636468 483.96771384 -169.36547852 486.79516602 C-172.7478925 490.22399392 -176.24618294 493.4156512 -179.90063477 496.54907227 C-182.68109683 499.01997991 -185.25666069 501.67683542 -187.86547852 504.32641602 C-190.4285308 506.84942061 -193.13893676 509.17079419 -195.86547852 511.51391602 C-198.65433385 513.99774029 -201.24234835 516.66228039 -203.86157227 519.32250977 C-206.44794003 521.86854431 -209.18083132 524.21538158 -211.93188477 526.58032227 C-214.39720125 528.76673426 -216.68492518 531.10153494 -218.99169922 533.45263672 C-220.7945356 535.22540626 -222.65128874 536.88204866 -224.56860352 538.52954102 C-228.85773583 542.25887849 -232.99372442 546.13269368 -237.11547852 550.04516602 C-242.2035499 554.85774021 -247.30917062 559.64555806 -252.49047852 564.35766602 C-256.17491443 567.71582354 -259.74617381 571.13982652 -263.23657227 574.69750977 C-264.9887913 576.41611308 -266.81434992 578.01079937 -268.67797852 579.60766602 C-271.88881607 582.37134631 -274.88815017 585.28136198 -277.86547852 588.29516602 C-281.39873113 591.87157286 -285.01945514 595.22957873 -288.84204102 598.49047852 C-292.06983967 601.36932597 -295.0647406 604.47416771 -298.08032227 607.57250977 C-299.86547852 609.29516602 -299.86547852 609.29516602 -300.86547852 609.29516602 C-300.86547852 411.29516602 -300.86547852 213.29516602 -300.86547852 9.29516602 C-267.53547852 8.30516602 -234.20547852 7.31516602 -199.86547852 6.29516602 C-172.61818629 5.4162211 -145.37125042 4.53372786 -118.12475586 3.6315918 C-109.1581728 3.33618704 -100.19133907 3.04955164 -91.22430992 2.76804543 C-89.010195 2.69849719 -86.79608882 2.62867735 -84.58198547 2.5587616 C-83.16207895 2.51394354 -81.74217234 2.46912843 -80.32226562 2.42431641 C-79.63683717 2.40268149 -78.95140871 2.38104658 -78.24520969 2.35875607 C-74.97886622 2.25582326 -71.71249516 2.15392331 -68.44607544 2.05343628 C-53.8603383 1.63987178 -53.8603383 1.63987178 -39.28941345 0.89399719 C-26.20775361 0.04340403 -13.10422627 0.03596024 0 0 Z " fill="#3552BB" transform="translate(300.865478515625,84.704833984375)"/>
<path d="M0 0 C2.31 0.33 4.62 0.66 7 1 C8.67101641 1.07648649 10.34433226 1.11540552 12.01708984 1.11010742 C12.95953552 1.1109433 13.9019812 1.11177917 14.87298584 1.11264038 C16.40152191 1.10909042 16.40152191 1.10909042 17.9609375 1.10546875 C48.29215902 1.22224892 78.38221992 2.49467165 108.625 4.8125 C109.50320152 4.87973896 110.38140305 4.94697792 111.28621674 5.01625443 C132.61853641 6.65610312 153.93194279 8.45433671 175.21972656 10.60083008 C197.80915061 12.85828126 220.47595608 14.22799226 243.12481689 15.74029541 C247.79259907 16.05311791 252.46009509 16.37003953 257.12756348 16.68750191 C264.52234756 17.19039848 271.91739867 17.68929303 279.3125 18.1875 C281.19119781 18.31451294 281.19119781 18.31451294 283.10784912 18.4440918 C294.66610249 19.22353577 306.22089535 19.99207618 317.79296875 20.53515625 C325.88202203 20.91640974 333.93515937 21.50744518 342 22.25 C343.40411901 22.37638861 344.80825382 22.50260185 346.21240234 22.62866211 C362.19039921 24.07393595 378.15815474 25.63534672 394.125 27.19824219 C403.23815234 28.08660818 412.34830419 28.96205817 421.47688293 29.67732239 C436.21833156 30.83754538 450.89359774 32.50418437 465.58441067 34.16767406 C474.93904282 35.22400479 484.29945722 36.22568554 493.66015625 37.2265625 C495.46553862 37.41988241 497.27091782 37.6132319 499.07629395 37.80661011 C501.85617281 38.10430987 504.6360593 38.40193763 507.41596603 38.69937706 C542.65637414 42.46999804 577.89408964 46.26658295 613.125 50.125 C614.06519737 50.22796387 615.00539474 50.33092773 615.97408295 50.43701172 C652.01166969 54.38645307 688.01538164 58.59478784 724 63 C722.72937674 66.81186978 721.39813196 67.29875384 718.03125 69.40625 C716.99355469 70.06214111 715.95585938 70.71803223 714.88671875 71.39379883 C713.76910156 72.08884521 712.65148437 72.7838916 711.5 73.5 C710.34968799 74.22394476 709.19995118 74.94880424 708.05078125 75.67456055 C705.75855862 77.1214533 703.46415443 78.56477672 701.16796875 80.00537109 C697.08934135 82.57337247 693.04043809 85.18497584 689 87.8125 C687.64460802 88.69152464 686.28914033 89.57043254 684.93359375 90.44921875 C684.28116699 90.87251465 683.62874023 91.29581055 682.95654297 91.73193359 C681.00503714 92.99673535 679.05167087 94.25860937 677.09765625 95.51953125 C668.46510727 101.0916411 659.85320317 106.6951926 651.25 112.3125 C650.25234619 112.96299316 649.25469238 113.61348633 648.22680664 114.28369141 C641.47849341 118.6943048 634.76332563 123.15241546 628.05859375 127.62890625 C617.00696403 135.00727312 605.91327738 142.32086119 594.8125 149.625 C579.39451957 159.76927652 579.39451957 159.76927652 564.0234375 169.984375 C553.65143046 176.91258558 543.23139075 183.76758247 532.8125 190.625 C517.14853146 200.93301045 517.14853146 200.93301045 501.53163147 211.31207275 C494.26617582 216.16302335 486.97303107 220.97193433 479.67675781 225.77636719 C478.06555825 226.83774895 476.45487645 227.89991713 474.84472656 228.96289062 C464.40568743 235.85427096 453.9043044 242.632026 443.30957031 249.28173828 C439.01387516 251.98163384 434.75302871 254.73351408 430.5 257.5 C426.11078078 260.35301526 421.71358806 263.18919819 417.27734375 265.96875 C416.47039062 266.47470703 415.6634375 266.98066406 414.83203125 267.50195312 C413.32226191 268.44648256 411.81077266 269.3882736 410.296875 270.32617188 C409.57886719 270.77541016 408.86085938 271.22464844 408.12109375 271.6875 C407.35470329 272.14604213 406.58831284 272.60458426 405.79869843 273.0770216 C402.87838615 274.95852756 402.87838615 274.95852756 400.31269073 277.68583393 C387.26230708 289.96616301 369.09188134 287.48807832 352.42481303 287.27672184 C347.68749914 287.22887534 342.95033266 287.24531774 338.21284485 287.25364685 C330.02065781 287.2593934 321.82944017 287.22510825 313.63749695 287.16303062 C301.79374103 287.07333877 289.95045019 287.04495502 278.10639149 287.03116272 C258.88690595 287.00713352 239.66793622 286.93405443 220.44873047 286.82983398 C201.78762335 286.72874566 183.12665742 286.65106785 164.46533203 286.60424805 C163.30184632 286.60130008 162.13836061 286.5983521 160.93961775 286.5953148 C151.83935347 286.57243893 142.73908611 286.55091354 133.63881755 286.5298146 C89.0920715 286.42618788 44.54661779 286.20485485 0 286 C0 191.62 0 97.24 0 0 Z " fill="#4756C1" transform="translate(0,1714)"/>
<path d="M0 0 C0 49.5 0 99 0 150 C-75.9 150 -151.8 150 -230 150 C-226.91331204 147.53064963 -223.98630206 145.23707787 -220.73901367 143.04248047 C-219.93014206 142.4944577 -219.12127045 141.94643494 -218.28788757 141.38180542 C-217.42331436 140.79948151 -216.55874115 140.21715759 -215.66796875 139.6171875 C-214.30385612 138.69572433 -214.30385612 138.69572433 -212.91218567 137.75564575 C-210.98556238 136.45515624 -209.05819173 135.15577333 -207.13012695 133.85742188 C-204.23340388 131.90592504 -201.34018591 129.94931569 -198.44726562 127.9921875 C-188.89180257 121.54171692 -179.28288273 115.22414579 -169.4753418 109.1640625 C-164.50544835 106.08688448 -159.65852526 102.83012299 -154.8125 99.5625 C-142.08262191 91.02962414 -129.26898001 82.62828799 -116.43896484 74.24707031 C-113.26653466 72.17461514 -110.09605357 70.09919231 -106.92578125 68.0234375 C-95.96416325 60.85274736 -84.95903585 53.75330495 -73.91967773 46.70288086 C-68.0378333 42.94632753 -62.1662073 39.17523471 -56.3125 35.375 C-42.00878987 26.09611472 -27.59793138 16.98205177 -13.16455078 7.90649414 C-9.92426903 5.86555617 -6.70169529 3.81220862 -3.53125 1.6640625 C-1 0 -1 0 0 0 Z " fill="#B768E0" transform="translate(800,1850)"/>
</svg>
